<svg width="512" height="512" viewBox="0 0 512 512" fill="none" xmlns="http://www.w3.org/2000/svg">
<rect width="512" height="512" fill="white"/>
<path fill-rule="evenodd" clip-rule="evenodd" d="M173.174 403.816C175.347 403.825 177.36 402.67 178.45 400.789L240.859 293.101C242.542 290.196 241.549 286.477 238.641 284.799L180.868 251.443C177.965 249.767 174.253 250.761 172.576 253.664L91.2409 394.417C88.9071 398.456 91.8103 403.508 96.4748 403.526L173.174 403.816Z" fill="#646AE8"/>
<path fill-rule="evenodd" clip-rule="evenodd" d="M338.923 403.816C336.749 403.825 334.737 402.67 333.647 400.789L271.238 293.101C269.555 290.196 270.548 286.477 273.455 284.799L331.229 251.443C334.132 249.767 337.844 250.761 339.521 253.664L420.856 394.417C423.19 398.456 420.286 403.508 415.622 403.526L338.923 403.816Z" fill="#646AE8"/>
<path fill-rule="evenodd" clip-rule="evenodd" d="M216.536 224.065C216.536 202.285 234.236 184.632 256.015 184.64C277.783 184.648 295.465 202.297 295.465 224.065C295.465 245.863 277.735 263.525 255.936 263.489C234.188 263.454 216.536 245.813 216.536 224.065Z" fill="#646AE8"/>
<path d="M262.518 205.557V243.375H254.523V213.146H254.301L245.641 218.575V211.484L255.003 205.557H262.518Z" fill="white"/>
<path d="M251.003 162.168C253.417 165.666 258.584 165.666 260.998 162.168L292.272 116.841C295.051 112.813 292.168 107.322 287.274 107.322H224.727C219.833 107.322 216.95 112.813 219.729 116.841L251.003 162.168Z" fill="#646AE8"/>
</svg>
