<svg width="64" height="64" viewBox="0 0 64 64" fill="none" xmlns="http://www.w3.org/2000/svg">
<rect width="64" height="64" rx="8" fill="#4D71FF" fill-opacity="0.3"/>
<path d="M32 18.6665C39.364 18.6665 45.3334 24.6358 45.3334 31.9998C45.3334 39.3638 39.364 45.3332 32 45.3332C24.636 45.3332 18.6667 39.3638 18.6667 31.9998C18.6667 24.6358 24.636 18.6665 32 18.6665ZM32 21.3332C29.171 21.3332 26.4579 22.457 24.4575 24.4574C22.4572 26.4578 21.3334 29.1709 21.3334 31.9998C21.3334 34.8288 22.4572 37.5419 24.4575 39.5423C26.4579 41.5427 29.171 42.6665 32 42.6665C34.829 42.6665 37.5421 41.5427 39.5425 39.5423C41.5429 37.5419 42.6667 34.8288 42.6667 31.9998C42.6667 29.1709 41.5429 26.4578 39.5425 24.4574C37.5421 22.457 34.829 21.3332 32 21.3332ZM32 23.9998C32.3266 23.9999 32.6418 24.1198 32.8859 24.3368C33.1299 24.5538 33.2858 24.8528 33.324 25.1772L33.3334 25.3332V31.4478L36.9427 35.0572C37.1818 35.2971 37.3207 35.6191 37.331 35.9577C37.3413 36.2963 37.2224 36.6261 36.9984 36.8802C36.7743 37.1343 36.462 37.2936 36.1247 37.3257C35.7875 37.3578 35.4507 37.2604 35.1827 37.0532L35.0574 36.9425L31.0574 32.9425C30.8501 32.7351 30.717 32.4652 30.6787 32.1745L30.6667 31.9998V25.3332C30.6667 24.9795 30.8072 24.6404 31.0572 24.3904C31.3073 24.1403 31.6464 23.9998 32 23.9998Z" fill="#4D71FF"/>
</svg>
