<svg width="32" height="32" viewBox="0 0 32 32" fill="none" xmlns="http://www.w3.org/2000/svg">
<path fill-rule="evenodd" clip-rule="evenodd" d="M16 28C22.6274 28 28 22.6273 28 16C28 9.37263 22.6274 3.99996 16 3.99996C9.37269 3.99996 4.00002 9.37263 4.00002 16C4.00002 22.6273 9.37269 28 16 28ZM16 29.3333C23.364 29.3333 29.3334 23.364 29.3334 16C29.3334 8.63596 23.364 2.66663 16 2.66663C8.63602 2.66663 2.66669 8.63596 2.66669 16C2.66669 23.364 8.63602 29.3333 16 29.3333Z" fill="#50CC85" stroke="#50CC85"/>
<path fill-rule="evenodd" clip-rule="evenodd" d="M23.1133 10.8392C23.2445 10.9577 23.3232 11.1235 23.3322 11.3C23.3412 11.4765 23.2797 11.6494 23.1613 11.7806L14.2573 21.6212L8.87333 16.4819C8.75244 16.3584 8.68426 16.1927 8.68318 16.0198C8.6821 15.847 8.74821 15.6804 8.86755 15.5554C8.98689 15.4303 9.15015 15.3565 9.32286 15.3495C9.49558 15.3426 9.66427 15.4029 9.79333 15.5179L14.1867 19.7112L22.1727 10.8866C22.2314 10.8216 22.3024 10.7689 22.3816 10.7314C22.4607 10.6939 22.5465 10.6724 22.634 10.6681C22.7215 10.6637 22.809 10.6767 22.8914 10.7062C22.9739 10.7356 23.0498 10.7811 23.1147 10.8399" fill="#50CC85"/>
<path d="M23.1133 10.8392C23.2445 10.9577 23.3232 11.1235 23.3322 11.3C23.3412 11.4765 23.2797 11.6494 23.1613 11.7806L14.2573 21.6212L8.87333 16.4819C8.75244 16.3584 8.68426 16.1927 8.68318 16.0198C8.6821 15.847 8.74821 15.6804 8.86755 15.5554C8.98689 15.4303 9.15015 15.3565 9.32286 15.3495C9.49558 15.3426 9.66427 15.4029 9.79333 15.5179L14.1867 19.7112L22.1727 10.8866C22.2314 10.8216 22.3024 10.7689 22.3816 10.7314C22.4607 10.6939 22.5465 10.6724 22.634 10.6681C22.7215 10.6637 22.809 10.6767 22.8914 10.7062C22.9739 10.7356 23.0498 10.7811 23.1147 10.8399" stroke="#50CC85"/>
</svg>
