<svg width="32" height="32" viewBox="0 0 32 32" fill="none" xmlns="http://www.w3.org/2000/svg">
<path d="M8.30572 13.0686H6.52794C6.41007 13.0686 6.29702 13.0218 6.21367 12.9385C6.13032 12.8551 6.0835 12.7421 6.0835 12.6242V6.40196C6.0835 6.28409 6.13032 6.17104 6.21367 6.08769C6.29702 6.00434 6.41007 5.95752 6.52794 5.95752H8.30572C8.42359 5.95752 8.53664 6.00434 8.61999 6.08769C8.70334 6.17104 8.75016 6.28409 8.75016 6.40196V12.6242C8.75016 12.7421 8.70334 12.8551 8.61999 12.9385C8.53664 13.0218 8.42359 13.0686 8.30572 13.0686Z" fill="#A0041E"/>
<path d="M4.44446 14.2221L16 2.6665L27.5556 14.2221V29.3332H4.44446V14.2221Z" fill="#FFE8B6"/>
<path d="M16 14.2222H16.8889V28.4444H16V14.2222Z" fill="#FFCC4D"/>
<path d="M27.5555 15.111C27.3198 15.1109 27.0937 15.0172 26.9271 14.8505L16 3.92342L5.07286 14.8505C4.99033 14.9331 4.89236 14.9985 4.78453 15.0432C4.6767 15.0879 4.56113 15.1108 4.44442 15.1108C4.32771 15.1108 4.21214 15.0879 4.10431 15.0432C3.99648 14.9985 3.8985 14.9331 3.81597 14.8505C3.73345 14.768 3.66798 14.67 3.62332 14.5622C3.57865 14.4544 3.55566 14.3388 3.55566 14.2221C3.55566 14.1054 3.57865 13.9898 3.62332 13.882C3.66798 13.7741 3.73345 13.6762 3.81597 13.5936L15.3715 2.03809C15.5382 1.87145 15.7643 1.77783 16 1.77783C16.2357 1.77783 16.4617 1.87145 16.6284 2.03809L28.184 13.5936C28.3087 13.7178 28.3937 13.8762 28.4282 14.0487C28.4628 14.2213 28.4452 14.4002 28.3779 14.5628C28.3106 14.7254 28.1965 14.8643 28.05 14.9619C27.9036 15.0595 27.7315 15.1114 27.5555 15.111Z" fill="#66757F"/>
<path d="M15.9999 15.1111C15.824 15.1115 15.6519 15.0596 15.5054 14.962C15.359 14.8644 15.2449 14.7255 15.1776 14.5629C15.1102 14.4003 15.0927 14.2214 15.1272 14.0488C15.1618 13.8763 15.2468 13.7179 15.3715 13.5938L21.1493 7.81597C21.2318 7.73345 21.3298 7.66798 21.4376 7.62332C21.5454 7.57865 21.661 7.55566 21.7777 7.55566C21.8944 7.55566 22.01 7.57865 22.1178 7.62332C22.2257 7.66798 22.3236 7.73345 22.4062 7.81597C22.4887 7.8985 22.5542 7.99648 22.5988 8.10431C22.6435 8.21214 22.6665 8.32771 22.6665 8.44442C22.6665 8.56113 22.6435 8.6767 22.5988 8.78453C22.5542 8.89236 22.4887 8.99033 22.4062 9.07286L16.6284 14.8506C16.4617 15.0174 16.2357 15.111 15.9999 15.1111Z" fill="#66757F"/>
<path d="M8.88892 23.1113H12.4445V28.4447H8.88892V23.1113Z" fill="#C1694F"/>
<path d="M8.88892 15.1113H12.4445V18.6669H8.88892V15.1113ZM20 15.1113H23.5556V18.6669H20V15.1113ZM20 23.1113H23.5556V26.6669H20V23.1113Z" fill="#55ACEE"/>
<path d="M29.7777 29.7777C29.7777 30.1313 29.6372 30.4704 29.3872 30.7205C29.1372 30.9705 28.798 31.111 28.4444 31.111H3.5555C3.20188 31.111 2.86274 30.9705 2.61269 30.7205C2.36264 30.4704 2.22217 30.1313 2.22217 29.7777C2.22217 29.424 2.36264 29.0849 2.61269 28.8349C2.86274 28.5848 3.20188 28.4443 3.5555 28.4443H28.4444C28.798 28.4443 29.1372 28.5848 29.3872 28.8349C29.6372 29.0849 29.7777 29.424 29.7777 29.7777Z" fill="#5C913B"/>
</svg>
